# xmcd
#
# Track frame offsets: 
#        150
#        24623
#        38859
#        59691
#        86604
#        129371
#        151927
#
# Disc length: 2455 seconds
#
# Revision: 0
# Processed by: cddbd v1.5.2PL0 Copyright (c) Steve Scherf et al.
# Submitted via: ExactAudioCopy v0.95b3
#
DISCID=54099507
DTITLE=Traffic  - Traffic Jam (FLAC)
DYEAR=1900
DGENRE=
TTITLE0=Giving To You
TTITLE1=Smiling Phases
TTITLE2=Coloured Rain
TTITLE3=Hole In My Shoe
TTITLE4=Feelin' Good
TTITLE5=Paper Sun
TTITLE6=Dear Mr. Fantasy
EXTD=
EXTT0=
EXTT1=
EXTT2=
EXTT3=
EXTT4=
EXTT5=
EXTT6=
PLAYORDER=
